<svg xmlns="http://www.w3.org/2000/svg" viewBox="0 0 1600 900" role="img" aria-label="Luxury Hamptons estate with pool">
  <defs>
    <linearGradient id="sky" x1="0" y1="0" x2="0" y2="1">
      <stop offset="0%" stop-color="#87CEEB"/>
      <stop offset="100%" stop-color="#E8F4FC"/>
    </linearGradient>
    <linearGradient id="water" x1="0" y1="0" x2="1" y2="1">
      <stop offset="0%" stop-color="#0077B6"/>
      <stop offset="100%" stop-color="#005a8a"/>
    </linearGradient>
    <linearGradient id="lawn" x1="0" y1="0" x2="0" y2="1">
      <stop offset="0%" stop-color="#5a9e4f"/>
      <stop offset="100%" stop-color="#3d7a35"/>
    </linearGradient>
  </defs>
  <rect width="1600" height="900" fill="url(#sky)"/>
  <rect y="520" width="1600" height="380" fill="url(#lawn)"/>
  <ellipse cx="800" cy="680" rx="700" ry="120" fill="#4a8f42" opacity="0.5"/>
  <rect x="200" y="380" width="500" height="280" rx="4" fill="#8B9DAF"/>
  <rect x="220" y="400" width="460" height="200" rx="2" fill="url(#water)"/>
  <rect x="240" y="620" width="80" height="12" rx="2" fill="#fff" opacity="0.9"/>
  <rect x="340" y="620" width="80" height="12" rx="2" fill="#fff" opacity="0.9"/>
  <rect x="440" y="620" width="80" height="12" rx="2" fill="#fff" opacity="0.9"/>
  <rect x="540" y="620" width="80" height="12" rx="2" fill="#fff" opacity="0.9"/>
  <rect x="780" y="350" width="420" height="250" rx="3" fill="#6B7B8C"/>
  <polygon points="780,350 990,350 990,280 780,350" fill="#5a6878"/>
  <rect x="820" y="420" width="120" height="140" fill="#A8D4F0" opacity="0.7"/>
  <rect x="980" y="420" width="120" height="140" fill="#A8D4F0" opacity="0.7"/>
  <rect x="1100" y="500" width="300" height="160" rx="8" fill="#E8E4DC"/>
  <rect x="1120" y="560" width="260" height="60" rx="4" fill="#D4CFC5"/>
  <circle cx="1300" cy="200" r="80" fill="#FFE066" opacity="0.8"/>
</svg>
